<svg xmlns="http://www.w3.org/2000/svg" xmlns:xlink="http://www.w3.org/1999/xlink" width="1080" zoomAndPan="magnify" viewBox="0 0 810 455.999984" height="608" preserveAspectRatio="xMidYMid meet" version="1.0"><defs><g/><clipPath id="f718444fb6"><path d="M 215.074219 222.75 L 584.074219 222.75 L 584.074219 389.25 L 215.074219 389.25 Z M 215.074219 222.75 " clip-rule="nonzero"/></clipPath></defs><g clip-path="url(#f718444fb6)"><path fill="#17320b" d="M 569.855469 251.878906 C 568.773438 252.191406 567.648438 252.488281 566.679688 253.03125 C 562.667969 255.28125 558.535156 256.164062 554.328125 256.300781 C 557.011719 253.257812 559.222656 254.410156 559.222656 254.410156 C 559.222656 254.410156 558.140625 252.953125 556.164062 253.933594 C 554.957031 254.53125 554.078125 255.582031 553.570312 256.316406 C 550.074219 256.355469 546.527344 255.90625 542.964844 255.320312 C 537.726562 254.464844 533.074219 252.132812 528.367188 249.871094 C 523.566406 247.558594 518.515625 246.019531 513.136719 245.839844 C 511.230469 245.777344 509.265625 245.792969 507.527344 246.625 C 501.304688 249.617188 494.699219 249.652344 488.042969 249.265625 C 486.714844 249.183594 485.398438 249.0625 484.09375 248.894531 C 484.773438 248.613281 485.65625 248.375 486.808594 248.21875 C 491.511719 247.585938 500.289062 243.796875 500.289062 243.796875 C 500.289062 243.796875 498.0625 244.359375 488.632812 246.179688 C 484.617188 246.960938 482.160156 247.707031 480.65625 248.328125 C 476.417969 247.472656 472.328125 246.046875 468.4375 243.847656 C 459.746094 238.9375 450.261719 237.59375 440.441406 238.019531 C 433.667969 238.3125 426.894531 238.628906 420.242188 236.855469 C 417.578125 236.148438 414.96875 235.300781 412.375 234.382812 C 410.835938 233.835938 410.183594 232.878906 409.871094 231.359375 C 409.285156 228.507812 408.878906 225.628906 408.585938 222.746094 L 389.890625 222.746094 C 389.730469 225.6875 389.464844 228.625 389.109375 231.558594 C 388.914062 233.164062 388.292969 234.160156 386.65625 234.8125 C 378.726562 237.96875 370.558594 239.558594 362.03125 238.816406 C 349.691406 237.746094 338.042969 239.710938 327.164062 245.953125 C 321.984375 248.921875 316.050781 249.523438 310.195312 249.925781 C 305.617188 250.238281 301.023438 250.195312 296.5 249.15625 C 295.816406 249 295.074219 248.914062 294.472656 248.589844 C 288.042969 245.121094 281.605469 246.425781 275.195312 248.558594 C 272.519531 249.449219 269.925781 250.570312 267.433594 251.902344 C 266.863281 252.207031 266.285156 252.496094 265.714844 252.769531 C 264.726562 252.21875 261.433594 250.5625 258.003906 250.863281 C 253.898438 251.21875 253.59375 254.59375 253.59375 254.59375 C 253.59375 254.59375 256.285156 250.113281 264.539062 253.300781 C 257.527344 256.34375 250.078125 257.15625 242.414062 256.773438 C 238.910156 256.597656 235.691406 255.375 232.546875 253.835938 C 227.113281 251.175781 221.597656 250.808594 216.105469 253.765625 C 215.808594 253.925781 215.542969 254.148438 215.382812 254.679688 C 216.492188 254.40625 217.597656 254.070312 218.71875 253.863281 C 223.753906 252.933594 228.539062 253.097656 233.289062 255.625 C 239.417969 258.886719 246.195312 258.816406 252.933594 258.1875 C 256.289062 257.871094 259.59375 257.199219 263.140625 256.171875 C 260.503906 260.28125 259.976562 265.332031 255.011719 268 C 258.058594 267.40625 260.125 265.421875 261.554688 261.589844 C 262.671875 258.601562 264.460938 256.230469 267.210938 254.730469 C 273.546875 251.285156 280.261719 249.035156 287.578125 249.113281 C 288.683594 249.125 289.878906 249.296875 290.886719 249.734375 C 297.117188 252.4375 303.671875 253.027344 310.359375 252.882812 C 312.503906 252.835938 312.546875 252.964844 311.625 254.917969 C 310.792969 256.6875 309.472656 257.597656 307.550781 257.050781 C 302.675781 255.660156 298.6875 257.066406 295.265625 260.621094 C 294.527344 261.386719 293.550781 261.78125 292.449219 261.949219 C 289.785156 262.351562 288.066406 263.511719 286.238281 265.996094 C 287.09375 265.871094 287.5 265.269531 288.035156 264.882812 C 289.058594 264.136719 289.984375 263.113281 291.289062 262.992188 C 294.0625 262.726562 296.167969 261.316406 298.070312 259.4375 C 299.851562 257.675781 301.980469 256.992188 304.460938 257.5 C 305.5 257.707031 306.539062 257.902344 307.578125 258.109375 C 310.601562 258.71875 312.152344 258.089844 313.351562 255.253906 C 314.21875 253.179688 315.496094 252.261719 317.71875 252.074219 C 321.332031 251.765625 324.882812 250.796875 327.988281 248.96875 C 329.101562 248.308594 330.226562 247.710938 331.363281 247.171875 C 331.289062 247.828125 331.023438 248.75 330.1875 249.457031 C 328.738281 250.683594 327.03125 255.035156 327.03125 255.035156 C 327.03125 255.035156 330.054688 250.292969 330.785156 249.734375 C 331.324219 249.316406 332.339844 247.445312 332.832031 246.5 C 341.378906 242.785156 350.46875 242.050781 359.859375 242.730469 C 361.175781 242.824219 362.496094 242.867188 363.9375 243.386719 C 362.753906 243.828125 361.589844 244.296875 360.394531 244.703125 C 356.355469 246.070312 352.824219 248.140625 350.363281 251.746094 C 348.527344 254.433594 345.828125 255.660156 342.761719 256.296875 C 341.464844 256.558594 340.183594 256.921875 338.960938 257.421875 C 343.726562 256.773438 348.589844 256.382812 351.707031 251.839844 C 353.296875 249.511719 355.539062 247.949219 358.132812 246.847656 C 361.242188 245.523438 364.503906 244.625 367.570312 243.140625 C 369.171875 242.363281 371.308594 242.730469 373.199219 242.5 C 377.957031 241.929688 382.539062 240.609375 387.121094 239.109375 C 382.847656 242.496094 380.25 247.722656 374.796875 249.769531 C 372.570312 250.601562 370.421875 251.25 368.027344 250.96875 C 364.167969 250.523438 360.59375 251.1875 357.664062 254.082031 C 361.460938 251.6875 365.625 251.832031 369.820312 252.171875 C 372.59375 252.390625 374.976562 251.140625 377.851562 249.886719 C 375.851562 253.628906 374.175781 257.011719 372.265625 260.261719 C 371.109375 262.226562 369.171875 262.972656 366.835938 262.84375 C 363.714844 262.667969 360.742188 261.707031 357.675781 261.242188 C 353.59375 260.628906 349.769531 261.246094 346.234375 263.269531 C 343.441406 264.875 340.601562 265.253906 337.488281 264.515625 C 334.792969 263.867188 332.085938 263.808594 329.597656 265.5 C 333.59375 263.988281 337.386719 265.703125 341.679688 266.210938 C 339.007812 268.441406 336.765625 271.328125 333.429688 271.457031 C 327.664062 271.6875 323.417969 274.410156 319.511719 278.167969 C 317.839844 279.78125 316.027344 281.210938 314.007812 282.386719 C 316.574219 281.925781 318.625 280.472656 320.621094 278.917969 C 322.738281 277.269531 324.917969 275.722656 327.320312 274.5 C 329.007812 273.640625 330.765625 273.414062 332.667969 273.625 C 330.261719 277.914062 329.398438 283.121094 324.542969 285.671875 C 328.125 284.671875 330.226562 282.09375 331.402344 278.835938 C 332.570312 275.589844 334.449219 273.1875 337.558594 271.714844 C 337.195312 272.4375 336.851562 273.375 336.804688 274.371094 C 336.707031 276.578125 338.476562 276.980469 338.476562 276.980469 C 338.476562 276.980469 336.359375 275.289062 338.457031 271.273438 C 340.09375 270.394531 341.515625 269.160156 342.875 267.902344 C 347.960938 263.179688 353.699219 261.527344 360.417969 263.839844 C 362.140625 264.433594 363.957031 264.757812 366.109375 265.308594 C 363.8125 267.628906 363.078125 270.515625 361.914062 273.195312 C 361.691406 273.707031 361.449219 274.382812 361.019531 274.605469 C 357.417969 276.476562 356.625 280.085938 355.417969 283.445312 C 355.300781 283.765625 355.183594 284.085938 354.894531 284.863281 C 356.183594 283.691406 356.476562 282.488281 356.945312 281.390625 C 357.832031 279.3125 358.6875 277.285156 360.84375 276.050781 C 362.421875 275.144531 363.09375 273.402344 363.742188 271.738281 C 364.25 270.425781 364.753906 269.105469 365.378906 267.847656 C 366.113281 266.390625 367.191406 265.492188 369.011719 265.417969 C 372.578125 265.28125 375.019531 263.292969 376.714844 260.25 C 378.089844 257.785156 379.421875 255.296875 380.921875 252.914062 C 383.703125 248.46875 389.683594 243.222656 394.796875 240.675781 C 391.8125 245.898438 389.894531 251.222656 388.460938 256.742188 C 388.179688 257.816406 387.253906 258.359375 386.3125 258.601562 C 382.964844 259.445312 380.933594 261.804688 379.1875 264.535156 C 378.277344 265.957031 377.359375 267.371094 376.574219 268.917969 C 378.023438 268.164062 378.789062 266.730469 379.789062 265.507812 C 380.8125 264.253906 381.890625 263.042969 382.984375 261.847656 C 384.179688 260.535156 385.867188 260.164062 387.804688 259.414062 C 386.558594 264.222656 386.199219 269.144531 381.917969 272.21875 C 377.542969 275.359375 373.777344 279.171875 369.800781 282.746094 C 367.75 284.59375 365.355469 285.59375 362.527344 285.722656 C 359.699219 285.851562 356.9375 286.402344 354.972656 288.898438 C 359.101562 285.566406 364.710938 287.765625 369.378906 284.628906 C 367.761719 288.621094 367.105469 292.65625 363.78125 295.136719 C 360.621094 297.496094 357.21875 299.515625 353.875 301.710938 C 359.796875 300.535156 367.347656 294.273438 369.421875 288.867188 C 371.75 282.773438 374.234375 279.875 381.289062 275.019531 C 381.804688 275.519531 381.242188 275.910156 381.109375 276.292969 C 380.007812 279.488281 379.507812 282.632812 380.574219 286.015625 C 381.554688 289.144531 381.394531 292.382812 380.273438 295.527344 C 382.5625 292.484375 382.492188 289.097656 381.589844 285.675781 C 380.175781 280.3125 382.089844 275.746094 385.261719 271.757812 C 387.78125 268.582031 388.960938 265.003906 390.007812 261.269531 C 390.726562 258.703125 391.40625 256.132812 392.34375 253.5625 C 392.988281 256.964844 394.753906 259.910156 395.722656 263.152344 C 395.96875 261.582031 395.527344 260.105469 394.96875 258.671875 C 392.4375 252.109375 394.398438 246.59375 399.101562 241.289062 C 399.460938 243.332031 399.804688 245.070312 400.070312 246.820312 C 400.382812 248.910156 400.769531 251.003906 400.878906 253.113281 C 401.214844 259.832031 399.628906 265.765625 394.015625 270.183594 C 390.722656 272.773438 388.34375 276.042969 388.398438 280.570312 C 389.777344 275.859375 392.910156 272.542969 396.730469 269.691406 C 398.773438 268.167969 399.929688 265.859375 401.148438 263.625 C 401.15625 270.703125 399.867188 277.457031 396.742188 283.8125 C 395.042969 287.261719 393.867188 290.867188 393.710938 294.746094 C 393.675781 295.617188 393.460938 296.425781 392.988281 297.144531 C 391.210938 299.855469 389.316406 302.492188 387.84375 305.398438 C 387.601562 305.871094 387.152344 306.382812 386.675781 306.578125 C 382.539062 308.273438 381.546875 312.226562 379.964844 315.765625 C 382.375 313.320312 383.054688 309.371094 386.828125 307.75 C 385.75 313.582031 387.230469 319.816406 381.992188 324.210938 C 384.519531 322.46875 385.902344 320.03125 387.222656 317.101562 C 388.109375 319.949219 387.070312 322.457031 387.234375 324.953125 C 388.082031 321.824219 389.046875 318.828125 387.6875 315.429688 C 386.746094 313.085938 387.429688 310.375 388.285156 307.964844 C 389.425781 304.761719 391.332031 301.976562 393.6875 298.894531 C 394.738281 307.394531 398.941406 314.328125 401.9375 321.710938 C 402.722656 323.652344 401.617188 325.019531 400.472656 326.210938 C 397.519531 329.289062 395.808594 333.601562 391.382812 335.277344 C 393.363281 334.78125 395.019531 333.789062 396.972656 332.386719 C 396.605469 335.769531 396.277344 338.785156 395.945312 341.800781 C 398.273438 336.25 397.503906 329.394531 403.382812 325.421875 C 405.78125 330.167969 406.753906 335.339844 405.546875 340.839844 C 404.449219 345.824219 402.566406 350.539062 400.449219 355.160156 C 399.261719 357.746094 397.320312 359.589844 394.777344 360.925781 C 391.1875 362.808594 389.371094 365.15625 388.941406 368.199219 C 390.980469 363.679688 395.328125 361.921875 399.441406 359.285156 C 397.828125 364.632812 398.769531 369.726562 399.210938 374.835938 C 399.640625 379.792969 399.085938 384.679688 397.335938 389.382812 C 400.648438 384.742188 400.882812 379.394531 400.71875 373.6875 C 402.605469 375.347656 403.808594 377.054688 404.003906 379.367188 C 404.164062 381.21875 404.664062 382.949219 406.140625 384.285156 C 404.914062 382.140625 404.839844 379.71875 404.292969 377.410156 C 404.078125 376.484375 403.628906 375.433594 402.941406 374.820312 C 399.121094 371.402344 399.800781 367.101562 400.46875 362.835938 C 401.007812 359.398438 402.328125 356.191406 403.605469 352.980469 C 404.898438 349.699219 406.242188 346.441406 407.207031 343.042969 C 408.164062 339.683594 408.460938 336.269531 408.121094 332.671875 C 409.929688 333.019531 411.414062 333.65625 412.835938 334.402344 C 414.273438 335.15625 414.796875 336.585938 414.496094 338.015625 C 413.167969 344.328125 415.0625 349.378906 420.039062 353.414062 C 420.96875 354.164062 421.519531 355.308594 421.652344 356.554688 C 422.039062 360.066406 424.65625 361.882812 426.945312 363.953125 C 427.089844 363.835938 427.238281 363.722656 427.382812 363.613281 C 426.804688 362.988281 426.226562 362.355469 425.652344 361.726562 C 424.113281 360.046875 422.8125 358.289062 422.441406 355.90625 C 422.078125 353.550781 420.390625 351.898438 418.675781 350.425781 C 414.929688 347.214844 414.628906 343.269531 416.140625 338.699219 C 416.960938 343.929688 421.449219 345.722656 425.265625 348.777344 C 424.605469 347.203125 423.589844 346.464844 422.617188 345.832031 C 418.773438 343.308594 417.257812 339.289062 415.761719 335.285156 C 415.082031 333.460938 413.875 332.214844 412.125 331.746094 C 408.652344 330.820312 406.960938 328.652344 405.804688 325.257812 C 403.425781 318.265625 399.746094 311.738281 397.984375 304.496094 C 396.761719 299.480469 396.597656 294.46875 398.082031 289.449219 C 398.40625 288.359375 398.902344 288.148438 399.863281 288.578125 C 402.441406 289.722656 405.089844 290.726562 407.589844 292.015625 C 410.441406 293.476562 411.96875 296.101562 413.074219 299.011719 C 413.902344 301.203125 414.226562 303.515625 414.789062 305.773438 C 414.9375 306.371094 414.824219 306.933594 414.539062 307.402344 C 412.792969 310.304688 413.183594 313.355469 413.808594 316.445312 C 414.039062 317.609375 414.207031 318.785156 414.589844 319.96875 C 415.195312 316.289062 413.179688 312.429688 415.101562 308.777344 C 415.917969 309.28125 415.832031 310.078125 416.046875 310.71875 C 416.964844 313.441406 418.316406 315.898438 420.535156 317.769531 C 420.726562 317.933594 420.914062 318.101562 421.101562 318.265625 C 420.730469 318.765625 419.636719 320.382812 419.554688 322.214844 C 419.457031 324.421875 421.226562 324.824219 421.226562 324.824219 C 421.226562 324.824219 418.929688 322.992188 421.488281 318.609375 C 424.832031 321.617188 427.484375 325.0625 428.363281 329.710938 C 428.8125 325.917969 427.617188 322.410156 424.886719 320.175781 C 419.148438 315.480469 416.84375 309.347656 415.890625 302.382812 C 415.785156 301.617188 415.574219 300.863281 415.4375 300.101562 C 415.414062 299.980469 415.507812 299.839844 415.496094 299.882812 C 420.683594 301.9375 425.792969 304.167969 428.515625 309.265625 C 426.9375 305.753906 424.992188 302.589844 420.882812 301.1875 C 417.574219 300.054688 414.945312 298.078125 413.3125 294.835938 C 412.179688 292.578125 410.367188 290.890625 408.019531 289.863281 C 405.628906 288.8125 403.246094 287.742188 400.824219 286.785156 C 399.746094 286.363281 399.367188 285.921875 399.9375 284.777344 C 404.527344 275.558594 405.839844 265.722656 405.328125 255.558594 C 405.308594 255.25 405.128906 254.882812 405.585938 254.523438 C 407.484375 257.417969 406.886719 261.0625 408.535156 263.980469 C 407.957031 259.789062 408.527344 255.304688 405.328125 251.785156 C 404.679688 251.066406 404.871094 250.046875 404.75 249.144531 C 404.445312 246.855469 404.132812 244.566406 403.742188 241.691406 C 407.859375 246.933594 410.382812 252.234375 411.152344 258.304688 C 411.519531 261.222656 412.039062 264.097656 411.617188 267.109375 C 411.109375 270.742188 412.679688 273.890625 414.964844 276.617188 C 417.28125 279.386719 419.640625 281.992188 419.757812 285.976562 C 419.8125 287.777344 421.214844 289.296875 422.464844 290.667969 C 423.839844 292.179688 425.226562 293.679688 426.746094 295.335938 C 426.464844 293.6875 425.410156 292.660156 424.53125 291.578125 C 422.417969 288.972656 420.589844 286.324219 420.375 282.765625 C 420.246094 280.6875 418.785156 279.042969 417.488281 277.445312 C 416.464844 276.1875 415.363281 274.980469 414.441406 273.648438 C 413.035156 271.621094 412.324219 269.382812 413.078125 266.527344 C 414.949219 268.867188 417.28125 269.75 419.746094 270.144531 C 420.277344 271.132812 421.042969 272.460938 421.488281 272.804688 C 422.21875 273.367188 425.242188 278.109375 425.242188 278.109375 C 425.242188 278.109375 423.53125 273.753906 422.085938 272.527344 C 421.273438 271.84375 421 270.953125 420.914062 270.300781 C 422.320312 270.449219 423.75 270.496094 425.136719 270.609375 C 432.277344 271.1875 435.648438 275.925781 438.355469 281.601562 C 438.621094 282.164062 438.738281 283.117188 438.632812 283.726562 C 438.019531 287.234375 439.273438 290.203125 441.160156 293.019531 C 442.058594 294.367188 442.839844 295.777344 443.554688 297.25 C 443.058594 292.730469 438.84375 289.25 439.789062 284.40625 C 439.789062 284.40625 440.957031 284.550781 443.746094 286.332031 C 443.746094 286.332031 440.761719 284.230469 440.222656 282.457031 C 440.058594 281.929688 437.902344 276.824219 436.285156 274.648438 C 439.144531 275.910156 440.257812 279.234375 443.121094 280.488281 C 445.933594 281.714844 448.882812 282.273438 451.933594 282.425781 C 450.609375 281.679688 449.117188 281.519531 447.664062 281.246094 C 444.925781 280.738281 442.707031 279.5 440.921875 277.265625 C 436.601562 271.855469 430.488281 269.671875 423.964844 268.714844 C 415.335938 267.445312 415.203125 265.691406 414.707031 259.3125 C 414.574219 257.625 414.324219 255.945312 414.035156 254.28125 C 413.753906 252.640625 413.359375 251.019531 412.9375 249.050781 C 418.480469 250.894531 423.808594 252.273438 426.992188 257.617188 C 429.070312 261.101562 432.296875 263.433594 436.296875 264.515625 C 437.007812 264.707031 437.734375 264.972656 438.71875 264.535156 C 433.464844 262.996094 429.90625 259.617188 427.089844 255.320312 C 424.628906 251.570312 420.882812 249.558594 416.777344 248.367188 C 413.609375 247.445312 411.132812 246.195312 410.109375 242.789062 C 409.726562 241.5 408.777344 240.375 408.359375 238.871094 C 409.746094 239.597656 411.117188 240.367188 412.527344 241.054688 C 418.914062 244.160156 425.683594 246.105469 432.644531 247.371094 C 434.664062 247.738281 435.878906 248.839844 436.347656 250.65625 C 437.136719 253.734375 439.066406 255.84375 441.59375 257.558594 C 443.210938 258.65625 444.804688 259.804688 446.570312 260.792969 C 443.261719 256.78125 437.625 254.535156 437.125 248.410156 C 442.464844 249.269531 447.339844 251.066406 450.65625 255.84375 C 453.476562 259.90625 457.378906 263.074219 460.171875 267.171875 C 461.734375 269.453125 462.574219 271.882812 462.527344 274.699219 C 462.472656 278.011719 463.238281 281.113281 466.007812 283.433594 C 462.292969 278.886719 464.703125 272.980469 462.476562 267.957031 C 466.320312 270.246094 470.722656 271.019531 474.660156 272.941406 C 474.796875 273.007812 474.929688 273.078125 475.0625 273.148438 C 474.761719 273.917969 474.273438 275.484375 474.546875 277.039062 C 474.9375 279.214844 476.753906 279.214844 476.753906 279.214844 C 476.753906 279.214844 474.230469 277.992188 475.542969 273.421875 C 478.011719 274.894531 479.777344 277.128906 481.34375 279.550781 C 483.179688 282.386719 485.089844 285.171875 487.152344 287.851562 C 484.347656 281.765625 481.121094 275.964844 475.714844 271.402344 C 478.925781 269.996094 481.550781 272.070312 484.367188 272.261719 C 481.5625 270.886719 478.835938 269.304688 475.492188 270.363281 C 474.925781 270.542969 474.203125 270.492188 473.621094 270.320312 C 467.882812 268.617188 462.433594 266.421875 458.355469 261.722656 C 455.871094 258.867188 453.421875 255.988281 451.222656 253.027344 C 457.796875 252.183594 462.832031 254.992188 467.035156 259.761719 C 464.039062 255.011719 459.765625 252.503906 454.3125 252.03125 C 451.8125 251.816406 449.554688 251.085938 447.523438 249.441406 C 444.207031 246.738281 440.085938 245.847656 436.035156 244.871094 C 432.578125 244.035156 429.019531 243.558594 425.726562 242.0625 C 433.777344 243.0625 441.816406 241.324219 449.84375 242.054688 C 456.132812 242.632812 461.054688 245.546875 464.027344 251.28125 C 465.480469 254.089844 467.234375 256.59375 470.050781 258.1875 C 470.644531 258.523438 471.210938 259.023438 472.207031 258.675781 C 468.34375 256.328125 466.070312 252.867188 464.273438 248.972656 C 463.320312 246.902344 461.636719 245.339844 459.800781 243.925781 C 462.699219 244.46875 465.355469 245.617188 467.878906 247 C 473.164062 249.898438 478.78125 251.5625 484.785156 251.984375 C 486.070312 252.078125 487.242188 252.410156 488.363281 253.101562 C 493.238281 256.097656 498.433594 257.742188 504.269531 256.972656 C 507.003906 256.613281 509.335938 257.925781 511.523438 259.449219 C 512.703125 260.277344 513.902344 261.070312 515.210938 261.671875 C 511.574219 258.488281 507.953125 255.230469 502.566406 255.851562 C 498.15625 256.359375 494.269531 255 490.214844 252.472656 C 493.3125 252.183594 496.007812 251.976562 498.691406 251.671875 C 501.605469 251.339844 504.429688 250.527344 507.128906 249.378906 C 511.027344 247.730469 514.941406 248.519531 518.851562 249.28125 C 520.371094 249.578125 521.84375 250.085938 523.332031 250.515625 C 525.730469 251.203125 527.769531 252.125 529.003906 254.675781 C 530.480469 257.722656 533.570312 258.734375 536.730469 259.210938 C 539.804688 259.675781 542.855469 259.980469 545.078125 262.640625 C 545.875 263.585938 547.28125 263.867188 548.558594 264.039062 C 550.574219 264.304688 552.605469 264.535156 555.113281 264.835938 C 553.699219 263.769531 552.441406 263.789062 551.28125 263.566406 C 548.636719 263.0625 546.128906 262.476562 544.117188 260.34375 C 542.273438 258.382812 539.507812 258.410156 537.015625 258.019531 C 534.21875 257.585938 531.601562 256.902344 530.101562 254.171875 C 529.980469 253.945312 529.746094 253.726562 530.121094 253.222656 C 533.203125 254.765625 536.480469 255.953125 539.921875 256.625 C 548.5625 258.292969 557.238281 259.035156 565.445312 255.097656 C 569.445312 253.175781 573.386719 252.394531 577.703125 252.84375 C 579.863281 253.070312 581.941406 253.699219 584.070312 254.042969 C 579.6875 250.984375 574.921875 250.40625 569.855469 251.878906 " fill-opacity="1" fill-rule="nonzero"/></g><g fill="#17320b" fill-opacity="1"><g transform="translate(159.813707, 223.660053)"><g><path d="M 92.453125 0 L 72.421875 0 L 65.171875 -22.203125 L 28.265625 -22.203125 L 21.015625 0 L 1.453125 0 L 34.734375 -96.34375 L 59.171875 -96.34375 Z M 45.796875 -76.234375 L 33.40625 -38.21875 L 59.90625 -38.21875 L 47.4375 -76.234375 Z M 45.796875 -76.234375 "/></g></g></g><g fill="#17320b" fill-opacity="1"><g transform="translate(253.71419, 223.660053)"><g><path d="M 30.96875 0 L 12.515625 0 L 12.515625 -96.34375 L 34.328125 -96.34375 L 73.015625 -34.265625 L 74.71875 -34.53125 L 74.71875 -96.34375 L 93.046875 -96.34375 L 93.046875 0 L 73.53125 0 L 32.625 -66.296875 L 30.96875 -66.03125 Z M 30.96875 0 "/></g></g></g><g fill="#17320b" fill-opacity="1"><g transform="translate(359.343996, 223.660053)"><g><path d="M 77.234375 -96.34375 L 77.234375 -80.328125 L 49.421875 -80.328125 L 49.421875 0 L 30.4375 0 L 30.4375 -80.328125 L 2.640625 -80.328125 L 2.640625 -96.34375 Z M 77.234375 -96.34375 "/></g></g></g><g fill="#17320b" fill-opacity="1"><g transform="translate(430.642353, 223.660053)"><g><path d="M 92.453125 0 L 72.421875 0 L 65.171875 -22.203125 L 28.265625 -22.203125 L 21.015625 0 L 1.453125 0 L 34.734375 -96.34375 L 59.171875 -96.34375 Z M 45.796875 -76.234375 L 33.40625 -38.21875 L 59.90625 -38.21875 L 47.4375 -76.234375 Z M 45.796875 -76.234375 "/></g></g></g><g fill="#17320b" fill-opacity="1"><g transform="translate(524.542836, 223.660053)"><g><path d="M 31.5625 0 L 12.515625 0 L 12.515625 -96.34375 L 31.5625 -96.34375 Z M 31.5625 0 "/></g></g></g><g fill="#17320b" fill-opacity="1"><g transform="translate(568.692536, 223.660053)"><g><path d="M 92.453125 0 L 72.421875 0 L 65.171875 -22.203125 L 28.265625 -22.203125 L 21.015625 0 L 1.453125 0 L 34.734375 -96.34375 L 59.171875 -96.34375 Z M 45.796875 -76.234375 L 33.40625 -38.21875 L 59.90625 -38.21875 L 47.4375 -76.234375 Z M 45.796875 -76.234375 "/></g></g></g></svg>